<svg width="238" height="58" viewBox="0 0 238 58" fill="none" xmlns="http://www.w3.org/2000/svg">
<path d="M19.6772 29.7692C19.9151 29.7734 20.151 29.7245 20.3677 29.6261C20.5843 29.5276 20.7762 29.3821 20.9295 29.2001C21.0828 29.018 21.1935 28.8041 21.2537 28.5739C21.3138 28.3437 21.3219 28.1029 21.2772 27.8692C21.2061 27.4721 20.996 27.1132 20.6846 26.8567C20.3731 26.6002 19.9806 26.4629 19.5772 26.4692H17.6772C16.6538 26.4444 15.6524 26.1666 14.7625 25.6606C13.8726 25.1546 13.1218 24.436 12.5772 23.5692C11.8867 22.5128 10.9341 21.6535 9.81242 21.0752C8.69073 20.4968 7.43826 20.2191 6.17723 20.2692C4.42811 20.5202 2.83238 21.4056 1.69383 22.757C0.555274 24.1083 -0.0465906 25.8311 0.0028175 27.5975C0.0522256 29.3638 0.749459 31.0503 1.96177 32.3359C3.17408 33.6215 4.81681 34.4163 6.57722 34.5692C7.62935 34.5704 8.6686 34.3378 9.61981 33.8881C10.571 33.4384 11.4104 32.783 12.0772 31.9692C12.5998 31.2972 13.2663 30.7508 14.0277 30.3701C14.7891 29.9894 15.6261 29.784 16.4772 29.7692H19.6772ZM6.57722 31.2692C5.82565 31.2692 5.09097 31.0463 4.46606 30.6288C3.84115 30.2112 3.35409 29.6177 3.06648 28.9234C2.77886 28.229 2.70362 27.465 2.85024 26.7278C2.99687 25.9907 3.35878 25.3136 3.89022 24.7822C4.42166 24.2507 5.09876 23.8888 5.83589 23.7422C6.57301 23.5956 7.33707 23.6708 8.03143 23.9584C8.72579 24.2461 9.31926 24.7331 9.73681 25.358C10.1544 25.9829 10.3772 26.7176 10.3772 27.4692C10.3772 27.9682 10.2789 28.4623 10.088 28.9234C9.89699 29.3844 9.61709 29.8033 9.26423 30.1562C8.91137 30.509 8.49246 30.789 8.03143 30.9799C7.57039 31.1709 7.07624 31.2692 6.57722 31.2692Z" fill="#172B71"/>
<path d="M43.2772 13.4691C46.6977 13.4497 50.0193 14.6158 52.6772 16.769C53.1565 17.1353 53.7605 17.2986 54.359 17.2238C54.9576 17.149 55.5028 16.842 55.8772 16.369C56.0558 16.1398 56.1871 15.8774 56.2637 15.597C56.3403 15.3167 56.3606 15.0239 56.3234 14.7357C56.2862 14.4474 56.1923 14.1694 56.047 13.9177C55.9018 13.6659 55.7081 13.4455 55.4772 13.269C52.5887 10.9407 49.0987 9.47998 45.4128 9.0567C41.727 8.63342 37.9967 9.26495 34.6556 10.8779C31.3145 12.4908 28.4998 15.019 26.5387 18.1684C24.5776 21.3178 23.5506 24.9591 23.5772 28.669C23.5802 32.6596 24.7951 36.5552 27.061 39.8401C29.3269 43.125 32.537 45.6442 36.2663 47.0644C39.9956 48.4846 44.0683 48.7387 47.9452 47.7931C51.8222 46.8475 55.3205 44.7468 57.9772 41.769C58.2627 41.3073 58.3756 40.7595 58.2961 40.2225C58.2166 39.6855 57.9497 39.194 57.5426 38.8348C57.1356 38.4757 56.6146 38.272 56.0719 38.26C55.5292 38.248 54.9997 38.4283 54.5772 38.769C52.8895 40.6671 50.7531 42.112 48.3632 42.9717C45.9733 43.8314 43.406 44.0785 40.896 43.6905C38.386 43.3025 36.0132 42.2917 33.9944 40.7505C31.9757 39.2092 30.3753 37.1867 29.3395 34.8677C28.3038 32.5486 27.8656 30.007 28.0651 27.475C28.2646 24.943 29.0954 22.5014 30.4816 20.3732C31.8677 18.245 33.7651 16.498 36.0003 15.292C38.2355 14.0859 40.7374 13.4592 43.2772 13.4691Z" fill="#172B71"/>
<path d="M69.3772 32.6692C68.7947 32.5483 68.188 32.6579 67.6845 32.9749C67.181 33.2919 66.82 33.7917 66.6772 34.3692C65.4034 39.6428 62.3875 44.3322 58.1176 47.6789C53.8476 51.0256 48.5733 52.8336 43.1481 52.8105C37.723 52.7874 32.4643 50.9344 28.2231 47.5514C23.9818 44.1685 21.006 39.4534 19.7772 34.1692C19.7678 33.8294 19.6831 33.4959 19.5293 33.1927C19.3755 32.8895 19.1565 32.6242 18.8878 32.4158C18.6192 32.2074 18.3078 32.0612 17.9759 31.9876C17.644 31.914 17.2999 31.915 16.9684 31.9903C16.6369 32.0656 16.3262 32.2135 16.0587 32.4233C15.7912 32.6331 15.5735 32.8996 15.4214 33.2036C15.2692 33.5076 15.1863 33.8416 15.1787 34.1815C15.171 34.5213 15.2389 34.8587 15.3772 35.1692C16.8617 41.4122 20.4027 46.9746 25.4307 50.9618C30.4586 54.9491 36.6815 57.1296 43.0985 57.1527C49.5155 57.1758 55.7539 55.0401 60.8104 51.0891C65.8669 47.1381 69.4478 41.6014 70.9772 35.3692C71.0521 35.0868 71.07 34.7923 71.0298 34.5029C70.9897 34.2135 70.8923 33.9351 70.7433 33.6837C70.5944 33.4324 70.3969 33.2132 70.1624 33.039C69.9278 32.8649 69.6609 32.7391 69.3772 32.6692Z" fill="#172B71"/>
<path d="M17.4772 22.7692H18.0772C18.5542 22.7782 19.0222 22.6387 19.4164 22.3699C19.8105 22.1012 20.1114 21.7165 20.2772 21.2692C21.7971 16.4503 24.7932 12.231 28.8419 9.2078C32.8906 6.18461 37.7872 4.51044 42.8393 4.422C47.8914 4.33356 52.8436 5.83531 56.9956 8.71494C61.1477 11.5946 64.2896 15.7064 65.9772 20.4692C65.9772 20.5692 66.0772 20.6692 66.0772 20.7692C66.2761 21.3261 66.6882 21.7813 67.2226 22.0344C67.7571 22.2876 68.3703 22.3181 68.9272 22.1192C69.4842 21.9203 69.9393 21.5082 70.1925 20.9738C70.4457 20.4393 70.4761 19.8261 70.2772 19.2692C70.2709 19.1921 70.2351 19.1204 70.1772 19.0692C68.1821 13.4245 64.466 8.54829 59.5525 5.12772C54.6391 1.70715 48.7761 -0.0852405 42.7899 0.00311652C36.8037 0.0914736 30.9962 2.05615 26.1858 5.62024C21.3755 9.18434 17.8048 14.1681 15.9772 19.8692C15.8692 20.1573 15.8228 20.4648 15.841 20.772C15.8593 21.0791 15.9417 21.379 16.0831 21.6523C16.2244 21.9256 16.4216 22.1662 16.6617 22.3586C16.9018 22.551 17.1797 22.6909 17.4772 22.7692Z" fill="#172B71"/>
<path d="M108.077 18.1691C107.986 17.268 107.686 16.4007 107.2 15.6366C106.713 14.8726 106.055 14.233 105.277 13.7691C103.526 12.633 101.463 12.0735 99.3772 12.1691C97.8369 12.1054 96.3012 12.3784 94.8772 12.9691C93.7313 13.4778 92.7334 14.2692 91.9772 15.2691C91.2426 16.2102 90.8542 17.3754 90.8772 18.5691C90.8331 19.4876 91.0779 20.3969 91.5772 21.1691C92.09 21.9469 92.7742 22.5968 93.5772 23.0691L95.9772 24.1691C96.7504 24.5103 97.554 24.7782 98.3772 24.9691L102.277 25.9691L105.577 27.0691C106.856 27.5414 108.066 28.1803 109.177 28.9691C110.334 29.7768 111.291 30.8368 111.977 32.0691C112.782 33.4633 113.164 35.0615 113.077 36.6691C113.117 38.654 112.56 40.6051 111.477 42.2691C110.3 44.0024 108.676 45.3847 106.777 46.2691C102.045 48.196 96.7599 48.2674 91.9772 46.4691C90.0988 45.6936 88.472 44.4129 87.2772 42.7691C86.0997 41.1264 85.4067 39.1861 85.2772 37.1691H90.0772C90.2032 38.4928 90.726 39.7476 91.5772 40.7691C92.4623 41.7602 93.6045 42.4871 94.8772 42.8691C97.841 43.8663 101.06 43.7955 103.977 42.6691C105.274 42.1302 106.435 41.3106 107.377 40.2691C108.17 39.1998 108.592 37.9003 108.577 36.5691C108.618 36.0044 108.541 35.4375 108.352 34.904C108.162 34.3704 107.865 33.8819 107.477 33.4691C106.711 32.5945 105.753 31.9098 104.677 31.4691L100.877 30.1691L96.1772 28.7691C93.521 28.1154 91.055 26.8482 88.9772 25.0691C88.1226 24.2628 87.449 23.2843 87.0008 22.1983C86.5526 21.1122 86.34 19.9434 86.3772 18.7691C86.3589 16.7415 86.9512 14.7554 88.0772 13.0691C89.3311 11.4422 90.9847 10.1675 92.8772 9.36912C94.9834 8.42462 97.269 7.94703 99.5772 7.96912C101.854 7.93887 104.109 8.41715 106.177 9.36912C108.004 10.1369 109.593 11.38 110.777 12.9691C111.872 14.4897 112.497 16.2973 112.577 18.1691H108.077Z" fill="#172B71"/>
<path d="M128.677 47.769C126.958 47.8041 125.251 47.4628 123.677 46.769C122.249 46.0744 121.039 45.0024 120.177 43.669C119.257 42.2422 118.803 40.565 118.877 38.869C118.82 37.4797 119.13 36.0999 119.777 34.869C120.448 33.8435 121.38 33.0151 122.477 32.4691C123.608 31.8406 124.819 31.3695 126.077 31.069L130.077 30.369L134.377 29.869C135.211 29.8409 136.029 29.6364 136.777 29.269C137.038 29.1194 137.251 28.8994 137.393 28.6341C137.534 28.3688 137.598 28.069 137.577 27.769V27.569C137.629 26.78 137.514 25.9888 137.238 25.2477C136.962 24.5065 136.532 23.8322 135.977 23.269C135.373 22.7134 134.663 22.2852 133.89 22.0103C133.117 21.7354 132.296 21.6193 131.477 21.669C129.701 21.5668 127.942 22.0594 126.477 23.069C125.419 23.8852 124.535 24.9053 123.877 26.069L119.677 24.569C120.334 22.9813 121.363 21.5751 122.677 20.4691C123.924 19.497 125.352 18.7831 126.877 18.369C128.311 17.9741 129.79 17.7723 131.277 17.769C132.356 17.7721 133.431 17.9064 134.477 18.169C135.72 18.3613 136.91 18.8036 137.977 19.4691C139.209 20.2185 140.211 21.2905 140.877 22.569C141.677 24.2885 142.054 26.1742 141.977 28.069V47.169H137.577V43.169H137.277C136.911 43.9265 136.402 44.6057 135.777 45.169C135.006 46.0129 134.046 46.6637 132.977 47.069C131.604 47.5841 130.143 47.822 128.677 47.769ZM129.377 43.769C130.939 43.8415 132.493 43.4963 133.877 42.769C134.958 42.1465 135.864 41.2609 136.511 40.1944C137.158 39.1279 137.525 37.9152 137.577 36.669V32.569C137.197 32.8677 136.751 33.0732 136.277 33.169C135.564 33.4158 134.827 33.5834 134.077 33.669L131.677 33.9691L129.877 34.269C128.756 34.3854 127.649 34.6201 126.577 34.9691C125.647 35.2221 124.812 35.7439 124.177 36.4691C123.856 36.8374 123.612 37.2656 123.457 37.729C123.303 38.1924 123.242 38.6819 123.277 39.169C123.248 39.8476 123.389 40.5226 123.686 41.1335C123.982 41.7445 124.426 42.2721 124.977 42.669C126.315 43.4322 127.837 43.8128 129.377 43.769Z" fill="#172B71"/>
<path d="M154.577 29.6692V47.1692H150.077V18.1692H154.377V22.6692H154.777C155.472 21.2415 156.544 20.0311 157.877 19.1692C159.504 18.1892 161.38 17.7028 163.277 17.7692C165.05 17.7403 166.803 18.1527 168.377 18.9692C169.867 19.7738 171.059 21.0358 171.777 22.5692C172.719 24.4956 173.166 26.6266 173.077 28.7692V47.1692H168.577V29.0692C168.689 27.1053 168.045 25.1732 166.777 23.6692C166.153 23.0365 165.404 22.5408 164.577 22.2137C163.751 21.8866 162.865 21.7352 161.977 21.7692C160.655 21.7464 159.349 22.0559 158.177 22.6692C157.096 23.3346 156.201 24.2636 155.577 25.3692C154.871 26.6894 154.526 28.1728 154.577 29.6692Z" fill="#172B71"/>
<path d="M193.777 18.169V21.9691H178.777V18.169H193.777ZM183.177 11.269H187.577V38.869C187.517 39.8398 187.724 40.8084 188.177 41.669C188.32 41.9515 188.517 42.2029 188.757 42.4088C188.998 42.6148 189.276 42.7712 189.577 42.869C190.189 43.0741 190.832 43.1755 191.477 43.169H193.377L194.277 47.169L193.077 47.4691C192.392 47.6446 191.683 47.712 190.977 47.669C189.698 47.7022 188.429 47.4279 187.277 46.869C186.045 46.3629 184.997 45.4902 184.277 44.369C183.529 43.1346 183.147 41.7124 183.177 40.269V11.269Z" fill="#172B71"/>
<path d="M211.977 47.7692C209.579 47.8249 207.216 47.1839 205.175 45.9236C203.134 44.6634 201.502 42.8382 200.477 40.6692C199.356 38.1863 198.777 35.4934 198.777 32.7692C198.777 30.045 199.356 27.3521 200.477 24.8692C201.479 22.7301 203.076 20.9248 205.077 19.6692C207.133 18.3546 209.538 17.6923 211.977 17.7692C214.385 17.6937 216.758 18.3567 218.777 19.6692C220.778 20.9248 222.375 22.7301 223.377 24.8692C224.498 27.3521 225.078 30.045 225.078 32.7692C225.078 35.4934 224.498 38.1863 223.377 40.6692C222.348 42.7903 220.757 44.5888 218.777 45.8692C216.738 47.1376 214.379 47.7969 211.977 47.7692ZM211.977 43.7692C213.742 43.7911 215.465 43.2285 216.877 42.1692C218.157 41.1158 219.126 39.7327 219.677 38.1692C220.299 36.4379 220.604 34.6087 220.577 32.7692C220.588 30.931 220.283 29.1046 219.677 27.3692C219.126 25.8057 218.157 24.4226 216.877 23.3692C215.488 22.2659 213.749 21.698 211.977 21.7692C210.201 21.6699 208.452 22.2409 207.077 23.3692C205.736 24.386 204.726 25.7781 204.177 27.3692C203.571 29.1046 203.267 30.931 203.277 32.7692C203.25 34.6087 203.555 36.4379 204.177 38.1692C204.726 39.7603 205.736 41.1524 207.077 42.1692C208.474 43.257 210.207 43.823 211.977 43.7692Z" fill="#172B71"/>
<path d="M234.077 13.369C233.669 13.3711 233.265 13.2927 232.888 13.1382C232.51 12.9838 232.167 12.7564 231.877 12.469C231.593 12.1981 231.366 11.8723 231.212 11.5114C231.057 11.1504 230.977 10.7617 230.977 10.369C230.963 9.95952 231.036 9.55175 231.192 9.17255C231.347 8.79334 231.58 8.4513 231.877 8.16898C232.167 7.8816 232.51 7.6542 232.888 7.49976C233.265 7.34532 233.669 7.26689 234.077 7.26898C234.932 7.25996 235.756 7.58257 236.377 8.16898C236.674 8.4513 236.908 8.79334 237.063 9.17255C237.218 9.55175 237.291 9.95952 237.277 10.369C237.277 10.7617 237.197 11.1504 237.043 11.5114C236.888 11.8723 236.662 12.1981 236.377 12.469C235.756 13.0554 234.932 13.378 234.077 13.369ZM231.877 47.169V18.169H236.277V47.169H231.877Z" fill="#172B71"/>
</svg>
